<?xml version="1.0" encoding="utf-8"?>
<!-- Generator: Adobe Illustrator 25.3.1, SVG Export Plug-In . SVG Version: 6.00 Build 0)  -->
<svg version="1.1" id="Layer_1" xmlns="http://www.w3.org/2000/svg" xmlns:xlink="http://www.w3.org/1999/xlink" x="0px" y="0px"
	 viewBox="0 0 640 512" style="enable-background:new 0 0 640 512;" xml:space="preserve">
<style type="text/css">
	.st0{fill:#BC6C25;}
</style>
<path class="st0" d="M624,448h-24.7L359.5,117.8L413,44.2c5.2-7.2,3.6-17.2-3.5-22.4L383.5,3.1c-7.1-5.2-17.1-3.6-22.4,3.6L320,63.3
	L278.8,6.6c-5.2-7.2-15.2-8.7-22.4-3.5l-25.9,18.8c-7.1,5.2-8.7,15.2-3.5,22.3l53.4,73.6L40.7,448H16c-8.8,0-16,7.2-16,16v32
	c0,8.8,7.2,16,16,16h608c8.8,0,16-7.2,16-16v-32C640,455.2,632.8,448,624,448z M320,288l116.4,160H203.6L320,288z"/>
</svg>
