<?xml version="1.0" encoding="utf-8"?>
<!-- Generator: Adobe Illustrator 25.3.1, SVG Export Plug-In . SVG Version: 6.00 Build 0)  -->
<svg version="1.1" id="Layer_1" xmlns="http://www.w3.org/2000/svg" xmlns:xlink="http://www.w3.org/1999/xlink" x="0px" y="0px"
	 viewBox="0 0 384 512" style="enable-background:new 0 0 384 512;" xml:space="preserve">
<style type="text/css">
	.st0{fill:#BC6C25;}
</style>
<path class="st0" d="M80.9,472.2c-4.3,17.2,6.1,34.5,23.3,38.8c2.6,0.7,5.2,1,7.8,1c14.3,0,27.4-9.7,31-24.2l25.2-101L115.5,334
	L80.9,472.2L80.9,472.2z M95.8,276.1L137,117c2.2-8.4-3.1-16.9-11.9-19.1C81.2,87.4,36.7,113,25.8,155.1L0.5,253.2
	c-2.2,8.4,3.1,16.9,11.9,19.1L76,287.6C84.8,289.7,93.7,284.5,95.8,276.1z M368,160h-16c-8.8,0-16,7.2-16,16v16h-34.8l-46.8-46.8
	c-11.1-11.1-25.9-17.2-41.6-17.2c-27,0-50.5,18.3-57,44.5L129,280.2c-2.7,10.9,0.5,22.4,8.4,30.4l86.6,86.6V480
	c0,17.7,14.3,32,32,32s32-14.3,32-32v-82.8c0-17.1-6.7-33.2-18.8-45.2l-46.8-46.8c0.1-0.5,0.5-0.9,0.6-1.4l19.9-79.6l22.4,22.4
	c6,6,14.1,9.4,22.6,9.4h48v240c0,8.8,7.2,16,16,16h16c8.8,0,16-7.2,16-16V176C384,167.2,376.8,160,368,160z M240,96
	c26.5,0,48-21.5,48-48S266.5,0,240,0s-48,21.5-48,48S213.5,96,240,96z"/>
</svg>
