<?xml version="1.0" encoding="utf-8"?>
<!-- Generator: Adobe Illustrator 25.3.1, SVG Export Plug-In . SVG Version: 6.00 Build 0)  -->
<svg version="1.1" id="Layer_1" xmlns="http://www.w3.org/2000/svg" xmlns:xlink="http://www.w3.org/1999/xlink" x="0px" y="0px"
	 viewBox="0 0 448 512" style="enable-background:new 0 0 448 512;" xml:space="preserve">
<style type="text/css">
	.st0{fill:#FFFFFF;}
</style>
<path class="st0" d="M416,208H272V64c0-17.7-14.3-32-32-32h-32c-17.7,0-32,14.3-32,32v144H32c-17.7,0-32,14.3-32,32v32
	c0,17.7,14.3,32,32,32h144v144c0,17.7,14.3,32,32,32h32c17.7,0,32-14.3,32-32V304h144c17.7,0,32-14.3,32-32v-32
	C448,222.3,433.7,208,416,208z"/>
</svg>
