<?xml version="1.0" encoding="utf-8"?>
<!-- Generator: Adobe Illustrator 25.3.1, SVG Export Plug-In . SVG Version: 6.00 Build 0)  -->
<svg version="1.1" id="Layer_1" xmlns="http://www.w3.org/2000/svg" xmlns:xlink="http://www.w3.org/1999/xlink" x="0px" y="0px"
	 viewBox="0 0 500 275" style="enable-background:new 0 0 500 275;" xml:space="preserve">
<style type="text/css">
	.st0{fill:#FFFFFF;}
</style>
<path class="st0" d="M140.3,62.9c-2.9,2.9-2.9,7.7,0,10.6s7.7,2.9,10.6,0l14.4-14.4v11.1l-25,25c-2.9,2.9-2.9,7.7,0,10.6
	s7.7,2.9,10.6,0l14.4-14.4v28c0,4.1,3.4,7.5,7.5,7.5s7.5-3.4,7.5-7.5v-28l14.4,14.4c2.9,2.9,7.7,2.9,10.6,0s2.9-7.7,0-10.6l-25-25
	v-11l14.4,14.4c2.9,2.9,7.7,2.9,10.6,0s2.9-7.7,0-10.6l-25-25v-11l14.4,14.4c2.9,2.9,7.7,2.9,10.6,0s2.9-7.7,0-10.6L178.1,3.5
	l-0.1-0.1c-0.1-0.1-0.3-0.3-0.5-0.4c-0.1-0.1-0.2-0.1-0.3-0.2L177,2.5l-0.3-0.2l-0.3-0.2l-0.1-0.1L176.1,2l-0.3-0.2l-0.3-0.1
	L175,1.6l-0.3-0.1l-0.4-0.1h-0.4l-0.4,0c-0.2,0-0.4,0-0.7,0h-0.2c-0.2,0-0.4,0-0.6,0l-0.4,0h-0.4L171,1.5l-0.3,0.1
	c-0.1,0-0.3,0.1-0.4,0.1L170,1.8L169.6,2l-0.3,0.2L169,2.3l-0.3,0.2l-0.3,0.2L168.1,3c-0.2,0.1-0.3,0.3-0.5,0.4l-0.1,0.1l0,0
	l-27.2,27.2c-2.9,2.9-2.9,7.7,0,10.6s7.7,2.9,10.6,0l0,0l14.4-14.4v11.1L140.3,62.9z"/>
<path class="st0" d="M142,171.9c27.5-16.4,63.5-32,92.5-44.5c16.3-7,30.4-13.1,41.2-18.5c5.9-2.9,23.7-11.8,22.1-26.2
	c-1-8.6-8.7-16-23.6-22.5c-9.9-4.3-23.2-8.5-39.6-12.4c-4-0.9-8.1,1.6-9,5.6c-0.9,4,1.6,8.1,5.6,9c50,11.7,51.7,21.9,51.7,22
	c0.1,1.1-2.1,5.2-13.8,11c-10.5,5.2-24.4,11.2-40.5,18.2c-65.5,28.3-147,63.6-145.3,104.8c0.9,21.9,24.4,40.3,71.8,56.3
	c3.9,1.3,8.2-0.7,9.5-4.7c0,0,0,0,0,0c1.3-3.9-0.8-8.2-4.7-9.5c0,0,0,0,0,0c-27.7-9.3-60.8-24.3-61.6-42.7
	C97.6,201.8,121.7,184,142,171.9z"/>
<path class="st0" d="M280.3,53.9c13.6,3.4,27,7.6,40.1,12.5c3.7,1.4,7.1,2.8,10.1,4.2l11.3-11.3c-4.8-2.3-10.2-4.6-16.2-6.9
	c-13.7-5.2-27.7-9.5-41.9-13c-4-0.9-8,1.7-8.9,5.7C274,49,276.4,52.9,280.3,53.9z"/>
<path class="st0" d="M357,249.1c-36.6-5.1-98.8-17.6-103-43.7c-3.3-20.4,28.3-47.1,64.6-68.9c-3.2-5-3.7-11.3-1.2-16.7
	c-14,8.1-30,18.3-43.8,29.6c-25.6,21.1-37.2,40.7-34.3,58.3c4.5,27.6,42.3,45.9,115.7,56.2c0.4,0,0.7,0.1,1.1,0.1
	c4.1,0,7.5-3.4,7.5-7.5C363.5,252.7,360.7,249.6,357,249.1z"/>
<path class="st0" d="M394.3,132.3c2.9,3,7.6,3.1,10.6,0.2c3-2.9,3.1-7.6,0.2-10.6c-0.1-0.1-0.1-0.1-0.2-0.2l-31-31V77.6L394.3,98
	c2.9,3,7.6,3.1,10.6,0.2c3-2.9,3.1-7.6,0.2-10.6c-0.1-0.1-0.1-0.1-0.2-0.2l-33.2-33.2l-0.1-0.1c-0.1-0.1-0.3-0.3-0.5-0.4
	c-0.1-0.1-0.2-0.1-0.3-0.2l-0.3-0.2l-0.3-0.2l-0.3-0.2c-0.1-0.1-0.2-0.1-0.3-0.2c-0.1-0.1-0.2-0.1-0.4-0.2c-0.1,0-0.2-0.1-0.3-0.1
	l-0.4-0.1l-0.3-0.1l-0.4-0.1h-0.3l-0.4-0.1h-0.6h-0.4c-0.2,0-0.4,0-0.5,0l-0.4,0.1H365l-0.4,0.1l-0.3,0.1l-0.4,0.1l-0.3,0.1
	c-0.1,0-0.2,0.1-0.4,0.2c-0.1,0-0.2,0.1-0.3,0.2l-0.3,0.2l-0.3,0.2l-0.3,0.2c-0.1,0.1-0.2,0.1-0.3,0.2c-0.2,0.1-0.3,0.3-0.5,0.4
	l-0.1,0.1L328,87.4c-2.8,3-2.7,7.8,0.3,10.6c2.9,2.7,7.3,2.7,10.2,0l20.4-20.4v13.1l-31,31c-2.9,2.9-2.9,7.7,0,10.6
	c2.9,2.9,7.7,2.9,10.6,0l0,0l20.4-20.4V125l-31,31c-3,2.9-3.1,7.6-0.2,10.6c2.9,3,7.6,3.1,10.6,0.2c0.1-0.1,0.1-0.1,0.2-0.2
	l20.4-20.4v13.1l-31,31c-2.9,2.9-2.9,7.7,0,10.6c2.9,2.9,7.7,2.9,10.6,0l20.4-20.4v43.7c0,4.1,3.4,7.5,7.5,7.5s7.5-3.4,7.5-7.5l0,0
	v-43.7l20.4,20.4c2.9,3,7.6,3.1,10.6,0.2c3-2.9,3.1-7.6,0.2-10.6c-0.1-0.1-0.1-0.1-0.2-0.2l-31-31v-13.1l20.4,20.4
	c2.9,3,7.7,3,10.7,0.1c3-2.9,3-7.7,0.1-10.7l0,0l-31-31v-13.1L394.3,132.3z"/>
</svg>
