<?xml version="1.0" encoding="utf-8"?>
<!-- Generator: Adobe Illustrator 25.3.1, SVG Export Plug-In . SVG Version: 6.00 Build 0)  -->
<svg version="1.1" id="Layer_1" xmlns="http://www.w3.org/2000/svg" xmlns:xlink="http://www.w3.org/1999/xlink" x="0px" y="0px"
	 viewBox="0 0 152.7 90.6" style="enable-background:new 0 0 152.7 90.6;" xml:space="preserve">
<style type="text/css">
	.st0{fill:#FFFFFF;}
</style>
<path class="st0" d="M87.2,53.5L68,85.8c-1.8,3.2-4.3,4.8-7.3,4.8c-3.5,0-5-1.8-5.5-4.9l-7.1-47c-2.2-14.9-4-26-16.9-26
	C20.6,12.8,15.2,20,13.7,27c-0.8,4.9,0.4,10,3.4,14c1.2,1.2,1.4,3,1,4.8c-0.9,3.5-4,6.1-7.6,6.3c-1.3,0.1-2.6-0.5-3.5-1.4
	C1.2,45.2-1.3,36.5,0.6,27C4,11.3,17.8,0.1,33.8,0.2c18.8,0,24.3,8.6,28.5,39.9l3.5,26l18.1-30.8L79.4,8.4c-0.1-0.8,0-1.5,0.2-2.2
	C80.3,2.5,84.5,0,87.9,0c2.1,0,4.3,1,4.7,3.6L95,16.8l7.7-13.2c1.4-2.3,3.9-3.6,6.6-3.6c3.3,0,6.4,2.5,5.7,6.2
	c-0.2,0.8-0.6,1.6-1,2.2l-16,26.9l5.4,31.1l36.9-62.7c1.3-2.2,3.7-3.6,6.3-3.6c3.4,0,6.8,2.5,6,6.2c-0.2,0.8-0.5,1.5-0.9,2.2
	l-46,77.4c-1.8,3-4.3,4.8-7.5,4.8s-5-1.7-5.6-4.9L87.2,53.5z"/>
</svg>
