<?xml version="1.0" encoding="utf-8"?>
<!-- Generator: Adobe Illustrator 25.3.1, SVG Export Plug-In . SVG Version: 6.00 Build 0)  -->
<svg version="1.1" id="Layer_1" xmlns="http://www.w3.org/2000/svg" xmlns:xlink="http://www.w3.org/1999/xlink" x="0px" y="0px"
	 viewBox="0 0 499 275" style="enable-background:new 0 0 499 275;" xml:space="preserve">
<style type="text/css">
	.st0{fill:#FFFFFF;}
</style>
<path class="st0" d="M11.8,228.1l18.6,35.7l0.6,0.7l0.6,0.8l1,0.9l0.7,0.6l1.3,0.6h0.7c0.7,0.1,1.4,0.1,2.2,0h431.2
	c0.8,0.1,1.7,0.1,2.5,0h0.8c0.5-0.2,1-0.4,1.4-0.7l0.8-0.8c0.5-0.3,1-0.6,1.4-1c0.2-0.4,0.5-0.8,0.6-1.2c0.2-0.3,0.3-0.7,0.5-1
	l11.1-32c1.5-4.2-0.7-8.7-4.9-10.2c-4.2-1.5-8.7,0.7-10.2,4.9l-7.4,21C410.6,196.7,362.7,63.7,357.9,49.9V15.7c0-4.4-3.6-8-8-8
	s-8,3.6-8,8v27.4H163.8V15.5c0-4.4-3.6-8-8-8s-8,3.6-8,8v34.4c-4.1,12.6-42.5,126.4-108.4,196.6l-13.4-25.8l0,0
	c-2-3.9-6.9-5.5-10.8-3.4c0,0,0,0,0,0l0,0l-0.1,0.1C11.1,219.4,9.7,224.2,11.8,228.1z M165.8,59.3h178.4
	c9.5,26.5,52,139.5,103.4,192.9H289.8l9.8-22.2c1.8-4.1,0-8.8-4.1-10.6c-4.1-1.8-8.8,0-10.6,4.1l0,0l-10.7,24
	C227.8,208.1,178.9,91.8,165.8,59.3z M163.8,95.8c20,45.6,55.2,119,92,156.2h-92V95.8z M56,252.1c43.8-48.9,74.6-113.8,91.8-155.9
	v155.9H56z"/>
</svg>
